<svg width="50" height="57" viewBox="0 0 50 57" fill="none" xmlns="http://www.w3.org/2000/svg">
<path d="M49.7112 38.9536C49.4792 37.0264 48.3772 36.6176 46.5212 36.6176C45.9992 36.6176 45.4192 36.6176 44.7232 36.676C43.9112 36.7344 43.0412 36.7344 41.9972 36.7928H41.7072C38.7492 36.7928 36.9512 36.2672 36.4872 35.216C35.6172 33.2888 38.9812 29.4928 41.1852 26.9232C41.6492 26.3976 42.1132 25.872 42.4612 25.4048C42.9252 24.8208 43.5052 24.1784 44.0272 23.536C46.9272 20.1488 49.8852 16.7032 49.7112 14.192C49.6532 13.4912 49.3632 12.9072 48.8412 12.44C48.3192 12.0312 47.7392 11.7976 47.1012 11.7976C46.3472 11.7976 45.5352 12.0896 44.6652 12.6152C45.2452 11.564 45.5352 10.5712 45.4192 9.69521C45.3032 8.93601 44.9552 8.35201 44.3172 7.88481C43.2152 7.12561 41.8812 7.12561 40.4892 8.11841C40.6052 7.30081 40.4312 6.42481 39.5032 5.72401C39.0972 5.43201 38.6332 5.25681 38.1112 5.25681C36.9512 5.25681 35.6752 6.07441 34.3992 7.30081C34.6892 6.54161 34.7472 5.89921 34.6892 5.37361C34.6312 4.84801 34.3412 4.38081 33.9352 4.08881C33.5872 3.79681 33.1812 3.68001 32.7172 3.68001C32.5432 3.68001 32.3692 3.68001 32.1372 3.73841C32.0792 3.21281 31.9052 2.33681 31.2672 1.69441C30.8032 1.22721 30.1652 0.993607 29.4692 0.993607H29.3532C27.7292 1.05201 26.7432 2.22001 26.2212 3.79681C25.8152 1.86961 25.0032 0.409607 23.0312 0.409607C22.5092 0.409607 21.9872 0.643207 21.5812 1.05201C21.0592 1.57761 20.7112 2.39521 20.4212 3.62161C19.9572 2.51201 19.2032 1.75281 17.9272 1.86961C15.9552 1.98641 15.2012 4.08881 14.9692 6.65841C14.4472 5.54881 13.7512 4.90641 12.7072 4.96481C10.2132 5.08161 9.92318 8.81921 9.86518 11.564C9.86518 14.1336 9.69118 28.4416 9.69118 28.4416C9.69118 28.5 9.69118 28.5584 9.74918 28.6168C7.02318 31.8288 4.47118 34.8656 2.84718 36.8512C1.74518 38.136 1.04918 38.9536 1.04918 39.012C0.933185 39.1288 0.875185 39.304 0.933185 39.4208C0.991185 39.5376 1.04918 39.7128 1.16518 39.8296L9.92318 47.3048V56.0648C9.92318 56.4152 10.1552 56.6488 10.5032 56.6488H34.2832C34.6312 56.6488 34.8632 56.4152 34.8632 56.0648V44.3848C34.8632 44.268 34.8052 44.1512 34.7472 44.0344C35.7912 43.9176 36.8932 43.7424 38.1112 43.5672C38.9812 43.4504 39.7932 43.3336 40.4892 43.2168C47.2752 42.1072 50.0592 41.6984 49.7112 38.9536ZM29.4112 2.10321H29.4692C29.8752 2.10321 30.2232 2.22001 30.4552 2.45361C30.8612 2.86241 30.9772 3.50481 31.0352 3.91361L30.4552 4.55601C29.4112 5.31521 28.3092 6.48321 27.4392 7.59281C27.2072 7.88481 26.9172 8.17681 26.6852 8.52721C26.8012 4.32241 27.7292 2.16161 29.4112 2.10321ZM22.3932 1.81121C22.5672 1.63601 22.7992 1.51921 23.0312 1.51921C25.0612 1.51921 25.2932 4.08881 25.4092 8.00161C25.4092 8.64401 25.4672 9.34481 25.4672 9.98721C24.5972 11.0384 23.5532 12.3232 22.1612 13.9584L21.2912 14.9512C21.2912 14.3672 21.2332 13.608 21.2332 12.6736C21.2332 12.3232 21.2332 11.9144 21.2332 11.5056V10.5712C21.2332 10.0456 21.2332 9.52001 21.2332 9.05281C21.1752 5.08161 21.5812 2.68721 22.3932 1.81121ZM18.0432 2.97921C18.1012 2.97921 18.1012 2.97921 18.1592 2.97921C19.7252 2.97921 20.0152 5.89921 20.0732 9.05281C20.0732 9.81201 20.0732 10.5712 20.1312 11.2136C20.1312 11.7392 20.1312 12.2064 20.1892 12.732C20.1892 14.8928 20.2472 15.8856 20.2472 16.2944L16.1872 20.908C16.1872 19.9152 16.2452 17.8712 16.1292 14.2504V13.3744C16.1292 13.024 16.1292 12.6152 16.1292 12.2064C15.9552 8.58561 15.8392 3.15441 18.0432 2.97921ZM11.0252 11.564C11.0832 7.12561 11.9532 6.13281 12.8232 6.07441C14.0412 6.07441 14.7952 8.81921 14.9112 14.2504C14.9692 17.988 14.9692 21.492 14.9692 21.5504C14.9692 21.7256 15.0272 21.9008 15.1432 22.0176L10.9092 26.8648C10.9092 23.0688 11.0252 13.608 11.0252 11.564ZM3.36918 38.0776L19.2612 51.1592C18.7392 51.8016 18.3912 52.3272 18.1012 52.6776L2.26718 39.304C2.55718 39.012 2.90518 38.6032 3.36918 38.0776ZM11.0832 54.2544H33.7032V55.4224H11.0832V54.2544ZM16.8252 53.0864H11.0832V48.2392L16.8252 53.0864ZM33.7032 44.3264V53.0864H19.2032C19.9572 52.0936 21.4072 50.2248 23.1472 47.8304C25.0032 45.2608 28.1352 44.852 33.2972 44.2096C33.4132 44.2096 33.5872 44.1512 33.7612 44.1512C33.7032 44.2096 33.7032 44.268 33.7032 44.3264ZM40.3152 41.9904C39.5612 42.1072 38.7492 42.224 37.8792 42.3408C36.1392 42.6328 34.5732 42.808 33.1232 42.9832C27.8452 43.684 24.3072 44.0928 22.1612 47.1296C21.3492 48.2976 20.5952 49.2904 19.8992 50.1664L4.12318 37.1432C8.00918 32.5296 15.9552 23.0104 19.6672 18.7472C20.1892 18.1632 20.6532 17.6376 21.1172 17.112C21.2332 17.0536 21.2912 16.9952 21.3492 16.82C21.9872 16.0608 22.5672 15.36 23.1472 14.7176L31.2672 5.43201C32.0212 4.90641 32.7752 4.61441 33.2972 4.96481C33.4132 5.02321 33.5292 5.19841 33.5872 5.49041C33.7032 6.42481 33.0652 8.46881 29.2952 13.316C26.9752 16.1776 24.7132 18.864 24.7132 18.864C24.5392 19.0976 24.5392 19.448 24.7712 19.6816C25.0032 19.9152 25.3512 19.8568 25.5832 19.6232C25.6412 19.5648 26.9172 18.2216 30.2232 14.0168L30.8032 13.2576C31.0352 12.9656 31.2672 12.6736 31.5572 12.3232C33.7032 9.57841 37.1832 5.25681 38.9232 6.54161C39.4452 6.89201 39.8512 7.59281 38.6332 9.69521C37.5892 10.8632 36.5452 12.2648 35.6752 13.4912C35.2692 14.0752 34.9212 14.6008 34.5732 15.0096L34.2832 15.36C32.0792 18.1048 28.8312 22.368 28.8312 22.368C28.6572 22.6016 28.6572 23.0104 28.9472 23.1856C29.1792 23.3608 29.5852 23.3608 29.7592 23.0688C29.7592 23.0688 32.3112 19.7984 35.1532 16.1776C35.2692 16.0608 35.3272 15.944 35.4432 15.8272C35.7912 15.4184 36.1392 14.9512 36.4872 14.5424C37.5892 13.1992 38.7492 11.7976 39.5032 10.5128C40.7212 9.16961 41.8232 8.46881 42.6932 8.46881C43.0412 8.46881 43.3892 8.58561 43.6792 8.81921C44.0852 9.11121 44.2592 9.40321 44.3172 9.81201C44.5492 11.6224 42.0552 14.6008 40.0252 16.9952C39.3872 17.7544 38.7492 18.4552 38.2852 19.0976C35.7912 22.1928 33.1812 25.4632 33.1812 25.5216C33.0072 25.7552 33.0072 26.1056 33.2392 26.3392C33.4712 26.5144 33.8192 26.5144 34.0512 26.2808C34.0512 26.2808 36.6612 23.3608 38.9812 20.1488C39.0392 20.032 39.0972 19.9736 39.1552 19.8568L39.2132 19.7984C41.1272 17.404 44.7232 12.9656 47.1012 12.9656C47.5072 12.9656 47.7972 13.0824 48.0872 13.316C48.3772 13.5496 48.5512 13.8416 48.5512 14.2504C48.7252 16.2944 45.5932 19.8568 43.1572 22.7768C42.5772 23.4192 42.0552 24.0616 41.5912 24.6456C41.2432 25.1128 40.7792 25.58 40.3152 26.1056C37.6472 29.2008 34.2832 33.0552 35.4432 35.6248C36.1392 37.1432 38.1692 37.9024 41.7652 37.9024H42.0552C43.0992 37.9024 44.0272 37.844 44.8392 37.7856C45.4772 37.7272 46.0572 37.7272 46.5792 37.7272C48.2612 37.7272 48.4932 38.0192 48.6092 39.012C48.7832 40.6472 46.7532 41.056 40.3152 41.9904Z" fill="black"/>
</svg>
