<svg width="40" height="40" viewBox="0 0 40 40" fill="none" xmlns="http://www.w3.org/2000/svg">
<path d="M20 0C8.96 0 0 8.96 0 20C0 31.04 8.96 40 20 40C31.04 40 40 31.04 40 20C40 8.96 31.04 0 20 0ZM20 36C11.18 36 4 28.82 4 20C4 11.18 11.18 4 20 4C28.82 4 36 11.18 36 20C36 28.82 28.82 36 20 36ZM27.76 12.58L16 24.34L12.24 20.58C11.46 19.8 10.2 19.8 9.42 20.58C8.64 21.36 8.64 22.62 9.42 23.4L14.6 28.58C15.38 29.36 16.64 29.36 17.42 28.58L30.6 15.4C31.38 14.62 31.38 13.36 30.6 12.58C29.82 11.8 28.54 11.8 27.76 12.58Z" fill="#00D9CC"/>
</svg>
